<mxfile host="Electron" agent="Mozilla/5.0 (Windows NT 10.0; Win64; x64) AppleWebKit/537.36 (KHTML, like Gecko) draw.io/26.2.2 Chrome/134.0.6998.178 Electron/35.1.2 Safari/537.36" version="26.2.2">
  <diagram name="Страница — 1" id="w_lFXddrGqPjPAL7E5iz">
    <mxGraphModel dx="534" dy="401" grid="0" gridSize="10" guides="1" tooltips="1" connect="1" arrows="1" fold="1" page="1" pageScale="1" pageWidth="827" pageHeight="1169" math="0" shadow="0">
      <root>
        <mxCell id="0" />
        <mxCell id="1" parent="0" />
        <mxCell id="3MKfPfhFdVEVH39Xw8Wg-4" style="edgeStyle=orthogonalEdgeStyle;rounded=0;orthogonalLoop=1;jettySize=auto;html=1;endArrow=none;startFill=0;" parent="1" source="3MKfPfhFdVEVH39Xw8Wg-1" target="3MKfPfhFdVEVH39Xw8Wg-2" edge="1">
          <mxGeometry relative="1" as="geometry" />
        </mxCell>
        <mxCell id="3MKfPfhFdVEVH39Xw8Wg-1" value="Пользователь" style="shape=umlActor;verticalLabelPosition=bottom;verticalAlign=top;html=1;outlineConnect=0;" parent="1" vertex="1">
          <mxGeometry x="360" y="370" width="30" height="60" as="geometry" />
        </mxCell>
        <mxCell id="3MKfPfhFdVEVH39Xw8Wg-2" value="Деформировать" style="ellipse;whiteSpace=wrap;html=1;" parent="1" vertex="1">
          <mxGeometry x="435" y="379" width="90" height="42" as="geometry" />
        </mxCell>
        <mxCell id="3MKfPfhFdVEVH39Xw8Wg-5" value="Согнуть трубку" style="ellipse;whiteSpace=wrap;html=1;" parent="1" vertex="1">
          <mxGeometry x="440" y="298" width="80" height="40" as="geometry" />
        </mxCell>
        <mxCell id="3MKfPfhFdVEVH39Xw8Wg-6" value="Отменить деформацию" style="ellipse;whiteSpace=wrap;html=1;" parent="1" vertex="1">
          <mxGeometry x="550" y="380" width="80" height="40" as="geometry" />
        </mxCell>
        <mxCell id="3MKfPfhFdVEVH39Xw8Wg-10" value="" style="endArrow=classic;html=1;rounded=0;exitX=0.5;exitY=1;exitDx=0;exitDy=0;entryX=0.5;entryY=0;entryDx=0;entryDy=0;dashed=1;dashPattern=8 8;" parent="1" source="3MKfPfhFdVEVH39Xw8Wg-5" target="3MKfPfhFdVEVH39Xw8Wg-2" edge="1">
          <mxGeometry width="50" height="50" relative="1" as="geometry">
            <mxPoint x="466" y="440" as="sourcePoint" />
            <mxPoint x="516" y="390" as="targetPoint" />
          </mxGeometry>
        </mxCell>
        <mxCell id="3MKfPfhFdVEVH39Xw8Wg-12" value="" style="endArrow=classic;html=1;rounded=0;entryX=1;entryY=0.5;entryDx=0;entryDy=0;exitX=0;exitY=0.5;exitDx=0;exitDy=0;dashed=1;dashPattern=8 8;" parent="1" source="3MKfPfhFdVEVH39Xw8Wg-6" target="3MKfPfhFdVEVH39Xw8Wg-2" edge="1">
          <mxGeometry width="50" height="50" relative="1" as="geometry">
            <mxPoint x="466" y="440" as="sourcePoint" />
            <mxPoint x="516" y="390" as="targetPoint" />
          </mxGeometry>
        </mxCell>
        <mxCell id="8lYfrokgDacJiOp0odQK-11" style="edgeStyle=orthogonalEdgeStyle;rounded=0;orthogonalLoop=1;jettySize=auto;html=1;exitX=1;exitY=0.5;exitDx=0;exitDy=0;endArrow=none;startFill=0;" parent="1" source="8lYfrokgDacJiOp0odQK-2" target="3MKfPfhFdVEVH39Xw8Wg-1" edge="1">
          <mxGeometry relative="1" as="geometry" />
        </mxCell>
        <mxCell id="8lYfrokgDacJiOp0odQK-2" value="Выбрать точку деформации" style="ellipse;whiteSpace=wrap;html=1;" parent="1" vertex="1">
          <mxGeometry x="230" y="375" width="90" height="50" as="geometry" />
        </mxCell>
        <mxCell id="17_6KKMnwn-uGj-AgSd_-3" style="edgeStyle=orthogonalEdgeStyle;rounded=0;orthogonalLoop=1;jettySize=auto;html=1;exitX=0.5;exitY=1;exitDx=0;exitDy=0;endArrow=none;startFill=0;" edge="1" parent="1" source="17_6KKMnwn-uGj-AgSd_-1">
          <mxGeometry relative="1" as="geometry">
            <mxPoint x="375.11764705882354" y="365.7647058823529" as="targetPoint" />
          </mxGeometry>
        </mxCell>
        <mxCell id="17_6KKMnwn-uGj-AgSd_-1" value="Выбрать направление дейформации" style="ellipse;whiteSpace=wrap;html=1;" vertex="1" parent="1">
          <mxGeometry x="330" y="285" width="90" height="60" as="geometry" />
        </mxCell>
        <mxCell id="17_6KKMnwn-uGj-AgSd_-5" style="edgeStyle=orthogonalEdgeStyle;rounded=0;orthogonalLoop=1;jettySize=auto;html=1;exitX=0.5;exitY=0;exitDx=0;exitDy=0;endArrow=none;startFill=0;" edge="1" parent="1" source="17_6KKMnwn-uGj-AgSd_-4">
          <mxGeometry relative="1" as="geometry">
            <mxPoint x="375" y="452.5" as="targetPoint" />
          </mxGeometry>
        </mxCell>
        <mxCell id="17_6KKMnwn-uGj-AgSd_-4" value="Получить статистику" style="ellipse;whiteSpace=wrap;html=1;" vertex="1" parent="1">
          <mxGeometry x="330" y="478" width="90" height="50" as="geometry" />
        </mxCell>
      </root>
    </mxGraphModel>
  </diagram>
</mxfile>
